<?xml version="1.0" standalone="no"?>
<!DOCTYPE svg PUBLIC "-//W3C//DTD SVG 20010904//EN"
 "http://www.w3.org/TR/2001/REC-SVG-20010904/DTD/svg10.dtd">
<svg version="1.0" xmlns="http://www.w3.org/2000/svg"
 width="1180.000000pt" height="1180.000000pt" viewBox="0 0 1180.000000 1180.000000"
 preserveAspectRatio="xMidYMid meet">
<metadata>
Created by potrace 1.14, written by Peter Selinger 2001-2017
</metadata>
<g transform="translate(0.000000,1180.000000) scale(0.100000,-0.100000)"
fill="#000000" stroke="none">
<path d="M6463 8516 c-129 -139 -437 -461 -592 -621 -81 -82 -198 -204 -261
-270 -63 -66 -179 -186 -257 -267 -79 -82 -143 -153 -143 -159 0 -6 76 -90
168 -187 93 -98 192 -203 222 -235 l53 -57 51 57 c28 32 100 110 161 173 357
372 471 491 690 725 82 88 214 226 292 307 79 80 143 152 143 159 0 6 -91 104
-202 217 -112 113 -211 214 -220 224 -10 10 -20 18 -22 18 -2 0 -40 -38 -83
-84z"/>
<path d="M5236 8548 c-215 -221 -371 -393 -371 -408 0 -17 144 -175 452 -498
48 -50 93 -92 99 -92 6 0 38 30 70 68 32 37 124 134 204 215 80 82 149 155
153 163 4 8 4 20 0 28 -4 7 -105 114 -224 237 -118 123 -237 248 -264 277 -26
28 -54 52 -63 52 -8 0 -33 -19 -56 -42z"/>
<path d="M4400 7673 c-181 -187 -320 -341 -320 -354 0 -14 9 -24 411 -444 163
-171 329 -345 369 -387 41 -43 77 -78 82 -78 4 0 8 60 7 134 -1 81 4 142 10
155 17 30 82 44 194 39 138 -5 140 -8 147 -181 l5 -132 92 -1 c119 -2 156 -24
219 -132 1 -2 23 17 48 41 25 25 66 55 91 67 25 12 45 26 45 31 0 5 -53 64
-117 132 -122 126 -486 511 -793 837 -96 102 -220 232 -275 288 l-101 104
-114 -119z"/>
<path d="M7298 7760 c-3 -10 -178 -197 -385 -412 -79 -82 -143 -152 -143 -158
0 -5 57 -69 127 -142 333 -347 322 -336 340 -304 13 23 207 230 382 408 l165
168 -209 212 c-115 117 -216 219 -224 226 -18 14 -48 16 -53 2z"/>
<path d="M6372 7355 c-28 -31 -125 -134 -216 -230 -91 -96 -166 -179 -166
-184 0 -5 43 -55 96 -110 l97 -102 111 7 c118 7 183 -3 207 -33 10 -11 16 -57
19 -147 l5 -131 81 -5 c73 -5 85 -9 145 -47 36 -24 68 -43 71 -43 4 0 9 13 13
29 12 58 31 60 320 50 76 -3 195 12 195 25 0 6 -44 56 -98 112 -53 55 -162
170 -241 255 -80 85 -197 208 -260 274 -64 66 -161 169 -216 228 -54 59 -102
107 -106 107 -4 0 -30 -25 -57 -55z"/>
<path d="M8080 6951 c-44 -50 -125 -138 -219 -236 -58 -61 -144 -151 -191
-200 l-85 -89 125 -12 c72 -6 135 -7 148 -3 26 10 305 12 340 3 14 -4 30 -23
43 -53 19 -41 22 -44 32 -27 42 66 79 86 161 86 30 0 45 7 72 34 19 19 34 41
34 49 0 9 -61 80 -137 159 -75 79 -170 180 -212 226 -41 45 -80 82 -86 81 -5
0 -17 -8 -25 -18z"/>
<path d="M3593 6824 c-70 -75 -129 -141 -131 -148 -2 -9 17 -15 64 -19 37 -4
77 -13 90 -22 22 -14 24 -23 24 -93 0 -109 4 -119 51 -127 40 -7 69 -35 69
-67 0 -30 20 -30 59 2 68 53 124 72 215 72 96 0 149 -13 200 -47 21 -14 42
-23 47 -20 16 10 -10 46 -96 135 -126 131 -273 286 -361 381 -43 48 -84 87
-91 88 -6 0 -69 -60 -140 -135z"/>
<path d="M5030 6635 c-11 -29 -14 -1053 -4 -1093 6 -22 10 -23 103 -20 l96 3
3 323 2 323 26 9 c35 14 81 12 91 -2 4 -7 10 -157 13 -333 l5 -320 65 -3 c36
-2 80 0 98 3 l32 6 0 328 c0 346 -6 399 -49 453 -17 21 -27 23 -98 23 -64 0
-88 -5 -131 -26 l-52 -26 -1 31 c-1 17 -4 101 -8 186 l-6 155 -88 3 c-86 3
-87 2 -97 -23z"/>
<path d="M6268 6653 l-28 -4 0 -559 c0 -499 2 -558 16 -564 9 -3 49 -6 90 -6
62 0 77 3 91 20 18 20 43 27 43 12 0 -13 72 -43 105 -44 82 -2 126 29 167 117
22 48 23 60 23 305 0 246 -1 257 -23 307 -35 77 -61 96 -135 101 -47 3 -74 -1
-111 -17 -27 -12 -53 -18 -57 -14 -5 5 -10 85 -11 178 l-3 170 -70 1 c-38 1
-82 -1 -97 -3z m291 -472 c20 -27 21 -43 21 -240 0 -253 -7 -281 -66 -281 -73
0 -74 2 -74 277 l0 243 33 14 c48 21 64 19 86 -13z"/>
<path d="M3400 6573 c-36 -7 -41 -19 -39 -98 2 -135 2 -135 -30 -135 -40 0
-48 -16 -42 -85 6 -59 7 -60 37 -63 l32 -3 3 -278 4 -277 28 -43 c43 -64 97
-85 205 -78 55 3 88 10 93 18 12 19 11 106 -1 130 -8 14 -22 19 -53 19 -74 0
-72 -9 -75 264 l-3 245 58 3 58 3 3 67 3 67 -61 7 -60 7 0 112 0 113 -31 6
c-34 7 -89 6 -129 -1z"/>
<path d="M4484 6433 c-77 -82 -142 -149 -146 -151 -11 -5 -10 -32 1 -32 5 0
22 18 39 40 40 55 94 96 154 116 62 20 245 17 272 -5 9 -8 19 -11 23 -7 9 9
-170 186 -189 186 -9 0 -78 -66 -154 -147z"/>
<path d="M6108 6514 c-20 -27 -48 -60 -62 -73 -33 -31 -33 -37 3 -56 16 -8 44
-28 62 -45 19 -16 37 -30 41 -30 10 0 9 209 -1 234 -6 16 -12 12 -43 -30z"/>
<path d="M3925 6325 c-56 -22 -102 -70 -126 -134 -19 -52 -20 -73 -17 -276 3
-213 4 -222 29 -276 28 -60 59 -87 135 -119 101 -44 267 8 309 96 19 41 45
171 38 190 -4 10 -28 14 -93 14 l-87 0 -6 -59 c-7 -80 -20 -101 -61 -101 -56
0 -66 22 -66 143 l0 106 154 3 c85 2 158 6 162 11 4 4 2 63 -4 132 -14 152
-40 220 -97 255 -49 30 -207 39 -270 15z m149 -148 c23 -24 45 -125 31 -147
-3 -5 -33 -10 -66 -10 l-59 0 0 65 c0 57 3 69 25 90 30 31 40 31 69 2z"/>
<path d="M4537 6326 c-50 -18 -78 -45 -108 -104 -23 -46 -24 -53 -24 -287 0
-271 7 -309 71 -365 54 -47 100 -63 185 -63 140 -1 217 61 239 192 6 38 10 86
8 107 l-3 39 -80 0 c-44 0 -86 -1 -92 -3 -9 -3 -13 -25 -13 -67 0 -86 -12
-115 -48 -115 -15 0 -38 7 -50 16 -22 15 -22 18 -22 252 0 130 4 243 8 250 5
7 24 15 43 18 48 8 63 -13 69 -100 l5 -71 90 0 90 0 0 81 c-1 163 -67 227
-240 232 -59 1 -103 -3 -128 -12z"/>
<path d="M5787 6326 c-50 -18 -59 -27 -91 -86 -21 -39 -28 -65 -28 -114 -2
-81 27 -133 114 -208 34 -29 88 -79 121 -111 55 -54 58 -60 55 -99 -3 -40 -5
-43 -42 -50 -34 -7 -43 -5 -64 14 -14 13 -33 42 -44 66 -10 23 -22 42 -27 42
-4 0 -35 -9 -69 -21 -43 -14 -62 -26 -62 -37 0 -36 49 -120 89 -154 123 -105
348 -60 395 79 43 127 1 211 -184 368 -104 88 -121 121 -86 162 21 24 27 26
52 18 18 -7 44 -32 68 -68 34 -52 40 -57 55 -43 9 8 28 17 43 21 15 4 32 12
37 19 26 31 -40 147 -108 193 -28 19 -47 23 -110 23 -42 -1 -93 -7 -114 -14z"/>
<path d="M6920 6333 c-8 -3 -18 -10 -21 -15 -10 -15 -9 -581 1 -662 8 -65 15
-85 37 -108 52 -55 113 -56 219 -7 34 16 64 29 67 29 3 0 7 -10 9 -22 3 -21 9
-23 78 -26 41 -2 85 0 97 3 l23 5 -1 363 c0 199 -4 380 -7 402 l-7 40 -78 3
c-127 5 -117 32 -117 -333 0 -313 0 -314 -22 -329 -31 -22 -75 -20 -87 3 -6
10 -11 138 -11 310 -1 160 -5 303 -9 318 -7 27 -10 28 -82 30 -41 1 -81 -1
-89 -4z"/>
<path d="M7573 6333 c-10 -4 -13 -93 -13 -404 l0 -399 23 -5 c12 -3 56 -5 97
-3 l75 3 3 282 2 282 37 28 c32 24 45 28 99 27 39 -1 64 3 66 10 3 6 2 51 0
100 l-4 88 -42 -5 c-57 -8 -88 -25 -117 -63 -29 -39 -39 -35 -39 16 l0 38 -62
5 c-74 6 -108 6 -125 0z"/>
<path d="M8374 6332 c-6 -4 -28 -104 -48 -222 -21 -118 -42 -219 -46 -224 -8
-8 -19 38 -60 244 -12 58 -26 126 -32 153 l-10 47 -94 0 c-52 0 -94 -4 -94 -8
0 -4 7 -35 16 -67 101 -386 185 -732 182 -753 -3 -24 -10 -29 -68 -42 l-65
-16 -3 -58 c-4 -76 7 -90 67 -81 151 22 196 49 230 139 17 45 76 295 141 591
9 44 28 126 40 182 13 56 21 105 18 108 -9 10 -161 16 -174 7z"/>
<path d="M3670 6111 c0 -22 25 -39 38 -27 8 8 -10 38 -26 44 -7 2 -12 -6 -12
-17z"/>
<path d="M7846 6045 c-8 -32 -5 -217 3 -253 6 -21 12 -16 80 52 l73 74 -7 51
c-9 70 -29 90 -91 97 -50 6 -51 6 -58 -21z"/>
<path d="M6107 6032 c-22 -24 -21 -45 3 -67 26 -24 50 -13 50 24 0 60 -22 78
-53 43z"/>
<path d="M4692 5933 c3 -15 17 -18 91 -21 60 -2 87 1 82 8 -3 5 -37 10 -75 10
-38 0 -72 5 -75 10 -10 17 -27 11 -23 -7z"/>
<path d="M5650 5911 c-22 -42 -9 -91 25 -91 32 0 40 31 19 75 -19 40 -29 43
-44 16z"/>
<path d="M7915 5698 l-75 -74 0 -65 c0 -35 -4 -69 -8 -75 -13 -20 -46 -32
-107 -39 -53 -7 -65 -13 -112 -58 -29 -27 -55 -58 -59 -69 -6 -19 56 -86 443
-487 l112 -116 68 70 c219 225 363 380 363 391 0 19 -103 137 -133 153 -24 13
-28 11 -72 -27 -26 -23 -72 -50 -101 -62 -87 -32 -209 -24 -240 17 -16 22 -19
204 -4 234 7 11 26 21 50 25 66 11 72 20 56 82 -16 59 -53 127 -85 156 -21 19
-21 19 -96 -56z"/>
<path d="M4310 5563 c-74 -100 -155 -131 -318 -121 -81 5 -140 28 -176 67 -25
28 -31 27 -55 -12 -28 -45 -58 -57 -148 -57 l-76 0 -104 -102 c-58 -57 -114
-116 -125 -131 l-20 -28 36 -42 c19 -23 120 -130 225 -237 l189 -195 23 30
c29 37 125 140 278 301 298 310 406 427 406 441 0 14 -84 131 -95 132 -3 1
-21 -20 -40 -46z"/>
<path d="M6806 5555 c-6 -16 7 -49 28 -71 6 -6 72 -76 146 -155 74 -79 156
-166 182 -194 l48 -50 167 174 c93 96 168 179 168 185 0 7 -18 10 -45 10 -25
-1 -153 -4 -285 -7 -275 -6 -285 -4 -343 73 -38 50 -56 59 -66 35z"/>
<path d="M4896 5514 c-72 -63 -109 -74 -238 -74 l-115 0 -56 -59 c-32 -33 -57
-65 -57 -72 0 -7 35 -49 78 -93 189 -197 470 -493 597 -631 174 -189 297 -315
307 -315 4 0 27 21 50 47 24 26 121 130 216 230 94 100 172 188 172 194 0 11
-74 89 -377 399 -67 69 -131 136 -143 150 -56 66 -137 143 -158 151 -13 5 -61
9 -106 9 -91 0 -99 4 -111 57 -3 18 -10 35 -13 37 -4 2 -25 -11 -46 -30z"/>
<path d="M5631 5509 c-12 -19 -21 -37 -21 -41 0 -14 -100 -25 -203 -22 -59 2
-106 0 -103 -5 16 -26 340 -351 350 -351 7 0 34 26 62 58 58 68 186 203 232
245 17 17 32 33 32 37 0 4 -44 9 -98 12 -103 4 -141 18 -204 76 l-27 25 -20
-34z"/>
<path d="M6079 5410 c-43 -46 -79 -92 -79 -102 0 -18 44 -67 305 -338 223
-232 340 -355 395 -415 47 -52 198 -212 539 -567 84 -88 103 -100 118 -74 4 7
87 96 184 197 214 223 233 245 223 261 -7 13 -32 39 -270 288 -406 425 -534
559 -631 665 l-110 120 -259 0 c-256 0 -260 0 -297 24 l-39 24 -79 -83z"/>
<path d="M6104 4868 c-44 -46 -142 -150 -219 -233 -76 -82 -146 -157 -154
-166 -61 -62 -520 -539 -576 -599 -39 -41 -123 -130 -188 -197 -64 -68 -117
-126 -117 -131 0 -4 69 -80 153 -168 84 -87 177 -185 207 -217 85 -91 75 -93
192 30 57 60 153 160 213 223 202 210 291 304 351 370 95 103 209 224 360 380
241 249 299 311 302 326 3 12 -423 464 -438 464 -3 0 -42 -37 -86 -82z"/>
<path d="M4345 4654 c-154 -158 -281 -289 -282 -293 -2 -3 101 -112 227 -241
l229 -235 98 100 c54 56 141 146 193 200 52 55 137 144 189 198 82 83 93 99
80 110 -9 6 -96 98 -194 202 -206 220 -231 245 -248 245 -7 0 -139 -129 -292
-286z"/>
<path d="M6400 4111 c-8 -9 -104 -110 -212 -223 -109 -114 -198 -213 -198
-220 1 -13 47 -62 371 -396 l188 -194 23 18 c35 27 413 432 413 443 0 10 -24
36 -329 359 -120 127 -224 232 -230 231 -6 0 -18 -8 -26 -18z"/>
</g>
</svg>
